# AST/ASF file generated using VICON BodyLanguage
# -----------------------------------------------
:version 1.10
:name VICON
:units
  mass 1.0
  length 0.45
  angle deg
:documentation
   .ast/.asf automatically generated from VICON data using
   VICON BodyBuilder and BodyLanguage model FoxedUp or BRILLIANT.MOD
:root
   order TX TY TZ RX RY RZ
   axis XYZ
   position 0 0 0  
   orientation 0 0 0 
:bonedata
  begin
     id 1 
     name lhipjoint
     direction 0.661853 -0.702389 0.261917 
     length 2.64193 
     axis 0 0 0  XYZ
  end
  begin
     id 2 
     name lfemur
     direction 0.34202 -0.939693 0  
     length 7.01722  
     axis 0 0 20  XYZ
    dof rx ry rz
    limits (-160.0 20.0)
           (-70.0 70.0)
           (-60.0 70.0)
  end
  begin
     id 3 
     name ltibia
     direction 0.34202 -0.939693 0   
     length 8.25008   
     axis 0 0 20   XYZ
    dof rx
    limits (-10.0 170.0)
  end
  begin
     id 4 
     name lfoot
     direction 0.0709916 -0.195048 0.978221   
     length 2.31941   
     axis -90 7.62852e-016 20   XYZ
    dof rx rz
    limits (-45.0 90.0)
           (-70.0 20.0)
  end
  begin
     id 5 
     name ltoes
     direction 1.53586e-011 -4.22017e-011 1   
     length 1.16486   
     axis -90 7.62852e-016 20   XYZ
    dof rx
    limits (-90.0 20.0)
  end
  begin
     id 6 
     name rhipjoint
     direction -0.638185 -0.721362 0.268992   
     length 2.57244  
     axis 0 0 0  XYZ 
  end
  begin
     id 7 
     name rfemur
     direction -0.34202 -0.939693 0   
     length 7.07017   
     axis 0 0 -20   XYZ
    dof rx ry rz
    limits (-160.0 20.0)
           (-70.0 70.0)
           (-70.0 60.0)
  end
  begin
     id 8 
     name rtibia
     direction -0.34202 -0.939693 0   
     length 8.20386   
     axis 0 0 -20   XYZ
    dof rx
    limits (-10.0 170.0)
 end
 begin
     id 9 
     name rfoot
     direction -0.0822429 -0.225961 0.970658   
     length 2.32215  
     axis -90 -7.62852e-016 -20   XYZ
    dof rx rz
    limits (-45.0 90.0)
           (-20.0 70.0)
  end
  begin
     id 10 
     name rtoes
     direction -1.53597e-011 -4.21689e-011 1   
     length 1.16333   
     axis -90 -7.62852e-016 -20   XYZ
    dof rx
    limits (-90.0 20.0)
  end
  begin
     id 11 
     name lowerback
     direction -0.0131557 0.998589 -0.0514484   
     length 2.14993   
     axis 0 0 0   XYZ
    dof rx ry rz
    limits (-20.0 45.0)
           (-30.0 30.0)
           (-30.0 30.0)
  end
  begin
     id 12 
     name upperback
     direction -0.000776481 0.999993 0.00352685   
     length 2.15301   
     axis 0 0 0   XYZ
    dof rx ry rz
    limits (-20.0 45.0)
           (-30.0 30.0)
           (-30.0 30.0)
  end
  begin
     id 13 
     name thorax
     direction 0.00438186 0.999609 0.0276143   
     length 2.15424   
     axis 0 0 0   XYZ
    dof rx ry rz
    limits (-20.0 45.0)
           (-30.0 30.0)
           (-30.0 30.0)
  end
  begin
     id 14 
     name lowerneck
     direction -0.0488006 0.998094 0.0377807   
     length 1.90481   
     axis 0 0 0   XYZ
    dof rx ry rz
    limits (-20.0 45.0)
           (-30.0 30.0)
           (-30.0 30.0)
  end
  begin
     id 15 
     name upperneck
     direction 0.0443769 0.990702 -0.12861   
     length 1.91305   
     axis 0 0 0   XYZ
    dof rx ry rz
    limits (-20.0 45.0)
           (-30.0 30.0)
           (-30.0 30.0)
  end
  begin
     id 16
     name head
     direction 0.0165599 0.998647 -0.0492982  
     length 1.92369  
     axis 0 0 0   XYZ
    dof rx ry rz
    limits (-20.0 45.0)
           (-30.0 30.0)
           (-30.0 30.0)
  end
  begin
     id 17 
     name lclavicle
     direction 0.911936 0.410197 -0.0105506  
     length 3.52622  
     axis 0 0 0   XYZ
    dof ry rz
    limits (-20.0 10.0)
           (0.0 20.0)
  end
  begin
     id 18 
     name lhumerus
     direction 1 -4.48974e-011 -2.48591e-028   
     length 5.47651   
     axis 180 -30 -90   XYZ
    dof rx ry rz
    limits (-60.0 90.0)
           (-90.0 90.0)
           (-90.0 90.0)
  end
  begin
     id 19
     name lradius
     direction 1 -4.48938e-011 -4.40099e-027   
     length 3.09058   
     axis 180 -30 -90   XYZ
    dof rx
    limits (-10.0 170.0)
  end
  begin
     id 20
     name lwrist
     direction 1 -4.49042e-011 -2.99852e-027   
     length 1.54529   
     axis 1.95339e-015 90 90   XYZ
    dof ry
    limits (-180.0 0.0)
 end
  begin
     id 21 
     name lhand
     direction 1 -4.48815e-011 -5.98193e-027   
     length 0.771611   
     axis 3.82337e-015 90 90   XYZ
    dof rx rz
    limits (-90.0 90.0)
           (-45.0 45.0)
  end
  begin
     id 22 
     name lfingers
     direction 1 -4.49034e-011 -1.1993e-026   
     length 0.622093   
     axis 7.64668e-015 90 90   XYZ
    dof rx
    limits (0.0 90.0)
  end
  begin
     id 23
     name lthumb
     direction 0.707107 -6.34867e-011 0.707107   
     length 0.893204   
     axis -90 45 -1.62303e-014   XYZ
    dof rx rz
    limits (-45.0 45.0)
           (-45.0 45.0)
  end
  begin
     id 24 
     name rclavicle
     direction -0.93442 0.355634 -0.0195692   
     length 3.62463  
     axis 0 0 0   XYZ 
    dof ry rz
    limits (-10.0 20.0)
           (-20.0 0.0)
  end
  begin
     id 25 
     name rhumerus
     direction -1 -4.48957e-011 -1.19147e-027  
     length 5.14182   
     axis 180 30 90   XYZ
    dof rx ry rz
    limits (-90.0 60.0)
           (-90.0 90.0)
           (-90.0 90.0)
  end
  begin
     id 26 
     name rradius
     direction -1 -4.48952e-011 -3.81062e-027   
     length 3.35565   
     axis 180 30 90   XYZ
    dof rx
    limits (-10.0 170.0)
  end
  begin
     id 27 
     name rwrist
     direction -1 -4.48973e-011 -2.99621e-027   
     length 1.67782   
     axis 1.95339e-015 -90 -90   XYZ
    dof ry
    limits (-180.0 0.0)
  end
  begin
     id 28
     name rhand
     direction -1 -4.48895e-011 -5.98727e-027   
     length 0.801042   
     axis 3.82337e-015 -90 -90   XYZ
    dof rx rz
    limits (-90.0 90.0)
           (-45.0 45.0)
  end
  begin
     id 29
     name rfingers
     direction -1 -4.49065e-011 -1.19972e-026   
     length 0.645821   
     axis 7.64668e-015 -90 -90   XYZ
    dof rx
    limits (0.0 90.0)
  end
  begin
     id 30
     name rthumb
     direction -0.707107 -6.34957e-011 0.707107   
     length 0.927273   
     axis -90 -45 1.62303e-014   XYZ
    dof rx rz
    limits (-45.0 45.0)
           (-45.0 45.0)
  end
:hierarchy
  begin
    root lhipjoint rhipjoint lowerback
    lhipjoint lfemur
    lfemur ltibia
    ltibia lfoot
    lfoot ltoes
    rhipjoint rfemur
    rfemur rtibia
    rtibia rfoot
    rfoot rtoes
    lowerback upperback
    upperback thorax
    thorax lowerneck lclavicle rclavicle
    lowerneck upperneck
    upperneck head
    lclavicle lhumerus
    lhumerus lradius
    lradius lwrist
    lwrist lhand lthumb
    lhand lfingers
    rclavicle rhumerus
    rhumerus rradius
    rradius rwrist
    rwrist rhand rthumb
    rhand rfingers
  end

#!OML:ASF E:\Style4\Style4.ASF
:FULLY-SPECIFIED
:DEGREES
117
root -0.629996 18.2189 -0.719071 2.9932 0.72511 2.96522
lowerback 4.88404 2.23107 -0.953784
upperback -1.91089 2.87804 -0.832864
thorax -4.71846 1.44279 -0.583167
lowerneck -0.58783 -4.62841 -5.64416
upperneck -0.915252 -6.1308 4.09234
head 0.131346 -3.05433 2.21218
rclavicle -6.05051e-015 4.37326e-015
rhumerus 12.6018 13.211 -53.3902
rradius 115.034
rwrist -75.6675
rhand 32.7262 3.31563
rfingers 7.12502
rthumb 56.1398 -13.9652
lclavicle -6.05051e-015 4.37326e-015
lhumerus 16.1265 -21.6011 42.8603
lradius 114.505
lwrist 77.9167
lhand 17.4211 31.6503
lfingers 7.12502
lthumb 42.1255 56.1982
rfemur -6.10397 4.07234 18.1113
rtibia 16.8139
rfoot -13.0377 -19.0372
rtoes -9.30886
lfemur -7.67937 -3.66093 -19.9987
ltibia 19.2255
lfoot -12.0426 11.3647
ltoes -17.8061
118
root -0.631783 18.2219 -0.752507 3.07743 0.813393 2.87352
lowerback 5.21124 2.10954 -0.899714
upperback -1.92615 2.72055 -0.698476
thorax -4.92412 1.36458 -0.474658
lowerneck -0.0830488 -4.52957 -5.82508
upperneck -1.29858 -6.01981 4.03507
head -0.076972 -3.00027 2.24733
rclavicle 5.05037e-015 -5.1684e-015
rhumerus 13.9761 12.0713 -54.056
rradius 113.606
rwrist -77.1109
rhand 32.5219 3.52395
rfingers 7.12502
rthumb 55.9588 -13.8977
lclavicle 5.05037e-015 -5.1684e-015
lhumerus 16.5742 -20.023 43.9168
lradius 113.542
lwrist 78.4263
lhand 16.8862 31.3138
lfingers 7.12502
lthumb 41.624 56.0286
rfemur -6.3385 4.08903 18.2063
rtibia 16.8535
rfoot -12.9479 -19.1085
rtoes -9.32771
lfemur -7.99308 -3.61476 -19.8764
ltibia 19.3591
lfoot -11.8967 11.3052
ltoes -18.1267
119
root -0.631545 18.2238 -0.784856 3.1611 0.888555 2.87108
lowerback 5.42463 2.08787 -0.842289
upperback -1.85812 2.69313 -0.701703
thorax -4.97142 1.34872 -0.514458
lowerneck 0.268418 -4.50633 -5.80084
upperneck -1.5645 -6.00399 4.02994
head -0.222228 -2.99377 2.25612
rclavicle 1.21134e-014 1.0138e-014
rhumerus 15.1499 10.6465 -54.8247
rradius 112.067
rwrist -78.4257
rhand 32.1773 3.6536
rfingers 7.12502
rthumb 55.653 -14.0019
lclavicle 1.21134e-014 1.0138e-014
lhumerus 17.3893 -18.6902 44.8907
lradius 112.504
lwrist 78.7567
lhand 16.5138 31.0136
lfingers 7.12502
lthumb 41.2746 55.842
rfemur -6.58573 4.03397 18.1932
rtibia 16.9255
rfoot -12.8468 -19.1167
rtoes -9.41016
lfemur -8.28547 -3.54645 -19.868
ltibia 19.4762
lfoot -11.7336 11.2767
ltoes -18.7167
120
root -0.63191 18.225 -0.817644 3.30665 0.951668 2.86439
lowerback 5.50835 2.13479 -0.714769
upperback -1.74774 2.76056 -0.794662
thorax -4.89299 1.37666 -0.688693
lowerneck 0.608904 -4.55924 -5.55702
upperneck -1.89151 -6.08584 4.00354
head -0.387135 -3.03681 2.21958
rclavicle 2.05556e-014 -5.96354e-016
rhumerus 16.1411 9.09712 -55.6877
rradius 110.507
rwrist -79.6769
rhand 31.2613 3.83515
rfingers 7.12502
rthumb 54.8372 -14.4206
lclavicle 2.05556e-014 -5.96354e-016
lhumerus 18.4807 -17.4253 45.8605
lradius 111.413
lwrist 78.9408
lhand 16.4017 31.0591
lfingers 7.12502
lthumb 41.1693 55.9214
rfemur -6.91175 4.00248 18.1867
rtibia 17.0345
rfoot -12.7432 -19.1725
rtoes -9.40306
lfemur -8.62971 -3.53093 -19.8493
ltibia 19.5776
lfoot -11.6434 11.2612
ltoes -18.7329
121
root -0.631163 18.2249 -0.850735 3.42304 0.976473 2.8307
lowerback 5.70812 2.13456 -0.597849
upperback -1.68678 2.76621 -0.812227
thorax -4.93623 1.37524 -0.779523
lowerneck 1.10233 -4.56363 -5.49508
upperneck -2.29391 -6.11013 4.00842
head -0.598688 -3.05111 2.23345
rclavicle 7.19352e-015 1.31198e-014
rhumerus 17.0754 7.8411 -56.5542
rradius 108.978
rwrist -80.6936
rhand 30.1587 4.06462
rfingers 7.12502
rthumb 53.8496 -14.8746
lclavicle 7.19352e-015 1.31198e-014
lhumerus 19.225 -16.1732 47.0411
lradius 110.341
lwrist 79.1027
lhand 16.2911 31.2166
lfingers 7.12502
lthumb 41.0655 56.1122
rfemur -7.25766 3.98887 18.2021
rtibia 17.2132
rfoot -12.7131 -19.1838
rtoes -9.25524
lfemur -8.91264 -3.4431 -19.8105
ltibia 19.6266
lfoot -11.5673 11.2389
ltoes -18.7739
122
root -0.629311 18.2254 -0.883524 3.49741 1.0312 2.79821
lowerback 6.30093 2.08228 -0.479588
upperback -1.83163 2.69746 -0.834176
thorax -5.41841 1.33457 -0.890707
lowerneck 1.53812 -4.51879 -5.5013
upperneck -2.32671 -6.07156 4.05525
head -0.684389 -3.0359 2.26456
rclavicle 2.004e-014 1.39149e-015
rhumerus 17.7421 6.85904 -57.5428
rradius 107.488
rwrist -81.4625
rhand 28.935 4.15662
rfingers 7.12502
rthumb 52.747 -15.4946
lclavicle 2.004e-014 1.39149e-015
lhumerus 19.5485 -15.1711 48.2044
lradius 109.245
lwrist 79.2349
lhand 16.3769 30.9925
lfingers 7.12502
lthumb 41.1461 55.8623
rfemur -7.60738 3.88136 18.2146
rtibia 17.4808
rfoot -12.6762 -19.1666
rtoes -9.16088
lfemur -9.12137 -3.42801 -19.7719
ltibia 19.6251
lfoot -11.5536 11.2026
ltoes -18.0741
123
root -0.627257 18.2276 -0.915492 3.54475 1.12148 2.76579
lowerback 7.0756 2.03453 -0.357055
upperback -2.05873 2.63321 -0.883285
thorax -6.09145 1.29319 -1.04217
lowerneck 1.89242 -4.49791 -5.36789
upperneck -2.1411 -6.06167 4.03005
head -0.692021 -3.03608 2.24
rclavicle -1.25234e-014 -5.96354e-015
rhumerus 18.2158 5.96905 -58.6406
rradius 105.939
rwrist -82.0098
rhand 27.4314 4.34538
rfingers 7.12502
rthumb 51.3836 -16.1194
lclavicle -1.25234e-014 -5.96354e-015
lhumerus 19.7872 -14.391 49.351
lradius 108.114
lwrist 79.4333
lhand 16.1299 30.6777
lfingers 7.12502
lthumb 40.9142 55.6213
rfemur -7.90633 3.75507 18.2416
rtibia 17.7841
rfoot -12.6734 -19.1371
rtoes -8.82847
lfemur -9.29333 -3.46132 -19.7405
ltibia 19.624
lfoot -11.4581 11.1973
ltoes -17.8324
